# xmcd
#
# Track frame offsets: 
#        150
#        17487
#        31717
#        54886
#        75140
#        95577
#        114430
#        141297
#        159907
#        177869
#        194305
#
# Disc length: 2872 seconds
#
# Revision: 0
# Processed by: cddbd v1.5.2PL0 Copyright (c) Steve Scherf et al.
# Submitted via: ExactAudioCopy v1.0b3
#
DISCID=730b360b
DTITLE=Alexis P. Suter Band - Just Another Fool
DYEAR=2007
DGENRE=Blues
TTITLE0=Climbin' on Up on the Mountain
TTITLE1=Pretty Good Love
TTITLE2=Another Fool
TTITLE3=Do What You Do
TTITLE4=High Times
TTITLE5=Hole That I'm In
TTITLE6=Imagination
TTITLE7=Right on Time
TTITLE8=In the City
TTITLE9=Stars
TTITLE10=You Don't Know Me
EXTD=
EXTT0=
EXTT1=
EXTT2=
EXTT3=
EXTT4=
EXTT5=
EXTT6=
EXTT7=
EXTT8=
EXTT9=
EXTT10=
PLAYORDER=
